# xmcd CD database file
#
# Track frame offsets:
#	150
#	12816
#	24816
#	32665
#	44358
#	60106
#	73388
#	85458
#	96770
#	107990
#	119093
#	132706
#	146367
#	160860
#	172215
#	187529
#
# Disc length: 2710 seconds
#
# Revision: 0
# Processed by: cddbd v1.5.1PL2 Copyright (c) Steve Scherf et al.
# Submitted via: CDex 1.51
#
DISCID=d80a9410
DTITLE=Glen Miller - My Blue Heaven
DYEAR=1900
DGENRE=Jazz
TTITLE0=Johnson Rag
TTITLE1=Caribbean Clipper
TTITLE2=Fools Rush In
TTITLE3=I'd Know You Anywhere
TTITLE4=Chattanooga Choo Choo
TTITLE5=Blue Orchids
TTITLE6=Runnin' Wild
TTITLE7=Sun Valley Jump
TTITLE8=Dipper Mouth Blues
TTITLE9=The Slumber Song
TTITLE10=Keep 'em Flying
TTITLE11=Slow Freight
TTITLE12=My Blue Heaven
TTITLE13=Peg O' My Heart
TTITLE14=Song of the Volga Boatmen
TTITLE15=Boulder Buff
EXTD=
EXTT0=
EXTT1=
EXTT2=
EXTT3=
EXTT4=
EXTT5=
EXTT6=
EXTT7=
EXTT8=
EXTT9=
EXTT10=
EXTT11=
EXTT12=
EXTT13=
EXTT14=
EXTT15=
PLAYORDER=
